<svg width="22" height="24" viewBox="0 0 22 24" fill="none" xmlns="http://www.w3.org/2000/svg">
<path d="M14.1878 6.58704C14.1878 8.30383 12.796 9.69556 11.0792 9.69556C9.36244 9.69556 7.9707 8.30383 7.9707 6.58704C7.9707 4.87025 9.36244 3.47852 11.0792 3.47852C12.796 3.47852 14.1878 4.87025 14.1878 6.58704Z" stroke="#6A6868" stroke-width="1.86511"/>
<path d="M4.69233 14.9904L5.38444 14.529C7.07094 13.4047 9.0525 12.8047 11.0794 12.8047C13.1063 12.8047 15.0879 13.4047 16.7744 14.529L17.4665 14.9904C18.3313 15.5669 18.8507 16.5375 18.8507 17.5768V19.1254C18.8507 19.9265 18.2013 20.576 17.4001 20.576H11.0794H4.75875C3.95758 20.576 3.30811 19.9265 3.30811 19.1254V17.5768C3.30811 16.5375 3.82754 15.5669 4.69233 14.9904Z" stroke="#6A6868" stroke-width="1.86511" stroke-linecap="round" stroke-linejoin="round"/>
</svg>
